<svg width="21" height="20" viewBox="0 0 21 20" fill="none" xmlns="http://www.w3.org/2000/svg">
<path fill-rule="evenodd" clip-rule="evenodd" d="M7.20801 5C5.30953 5 3.77051 6.53902 3.77051 8.4375C3.77051 10.336 5.30953 11.875 7.20801 11.875C9.10649 11.875 10.6455 10.336 10.6455 8.4375C10.6455 6.53902 9.10649 5 7.20801 5ZM2.52051 8.4375C2.52051 5.84867 4.61917 3.75 7.20801 3.75C9.79684 3.75 11.8955 5.84867 11.8955 8.4375C11.8955 11.0263 9.79684 13.125 7.20801 13.125C4.61917 13.125 2.52051 11.0263 2.52051 8.4375Z" fill="white"/>
<path fill-rule="evenodd" clip-rule="evenodd" d="M13.5734 3.75001L13.5754 3.75C14.8186 3.75 16.0108 4.24386 16.8899 5.12294C17.769 6.00202 18.2629 7.1943 18.2629 8.4375C18.2629 9.68071 17.769 10.873 16.8899 11.7521C16.0108 12.6311 14.8186 13.125 13.5754 13.125C13.2302 13.125 12.9504 12.8452 12.9504 12.5C12.9504 12.1548 13.2302 11.875 13.5754 11.875C14.487 11.875 15.3614 11.5128 16.006 10.8682C16.6507 10.2235 17.0129 9.34918 17.0129 8.4375C17.0129 7.52582 16.6507 6.65148 16.006 6.00682C15.3616 5.36239 14.4876 5.00025 13.5763 5C13.2591 5.00105 12.9435 5.04363 12.6374 5.12665C12.3042 5.217 11.9609 5.02018 11.8706 4.68704C11.7802 4.3539 11.977 4.01059 12.3102 3.92023C12.722 3.80853 13.1467 3.7513 13.5734 3.75001Z" fill="white"/>
<path fill-rule="evenodd" clip-rule="evenodd" d="M7.20806 13.1248C6.20509 13.1248 5.21685 13.3661 4.32682 13.8285C3.43678 14.2909 2.67109 14.9606 2.09442 15.7813C1.89596 16.0637 1.50613 16.1317 1.22371 15.9333C0.941292 15.7348 0.873233 15.345 1.0717 15.0626C1.7637 14.0778 2.68252 13.2741 3.75057 12.7193C4.81861 12.1644 6.0045 11.8748 7.20806 11.8748C8.41162 11.8748 9.59751 12.1644 10.6656 12.7193C11.7336 13.2741 12.6524 14.0778 13.3444 15.0626C13.5429 15.345 13.4748 15.7348 13.1924 15.9333C12.91 16.1317 12.5202 16.0637 12.3217 15.7813C11.745 14.9606 10.9793 14.2909 10.0893 13.8285C9.19927 13.3661 8.21103 13.1248 7.20806 13.1248Z" fill="white"/>
<path fill-rule="evenodd" clip-rule="evenodd" d="M16.4569 13.8278C15.5668 13.3654 14.5785 13.1244 13.5756 13.125C13.2304 13.1252 12.9504 12.8456 12.9502 12.5004C12.95 12.1552 13.2296 11.8752 13.5748 11.875C14.7786 11.8743 15.9648 12.1636 17.0331 12.7185C18.1013 13.2734 19.0202 14.0775 19.7118 15.0628C19.9101 15.3453 19.8418 15.7351 19.5593 15.9334C19.2767 16.1317 18.8869 16.0635 18.6886 15.7809C18.1124 14.96 17.3469 14.2901 16.4569 13.8278Z" fill="white"/>
</svg>
