<svg width="21" height="20" viewBox="0 0 21 20" fill="none" xmlns="http://www.w3.org/2000/svg">
<path fill-rule="evenodd" clip-rule="evenodd" d="M10.333 6.25C9.29747 6.25 8.45801 7.08947 8.45801 8.125C8.45801 9.16053 9.29747 10 10.333 10C11.3685 10 12.208 9.16053 12.208 8.125C12.208 7.08947 11.3685 6.25 10.333 6.25ZM7.20801 8.125C7.20801 6.39911 8.60712 5 10.333 5C12.0589 5 13.458 6.39911 13.458 8.125C13.458 9.85089 12.0589 11.25 10.333 11.25C8.60712 11.25 7.20801 9.85089 7.20801 8.125Z" fill="white"/>
<path fill-rule="evenodd" clip-rule="evenodd" d="M10.333 2.5C8.84117 2.5 7.41042 3.09263 6.35553 4.14752C5.30064 5.20242 4.70801 6.63316 4.70801 8.125C4.70801 10.7125 6.15291 13.0685 7.67964 14.8243C8.43536 15.6933 9.1927 16.3941 9.76123 16.8773C9.98607 17.0684 10.1807 17.2249 10.333 17.3437C10.4854 17.2249 10.6799 17.0684 10.9048 16.8773C11.4733 16.3941 12.2307 15.6933 12.9864 14.8243C14.5131 13.0685 15.958 10.7125 15.958 8.125C15.958 6.63316 15.3654 5.20242 14.3105 4.14752C13.2556 3.09263 11.8249 2.5 10.333 2.5ZM10.333 18.125C9.97459 18.637 9.97442 18.6369 9.97422 18.6368L9.9737 18.6364L9.97224 18.6354L9.96762 18.6321L9.95173 18.6208C9.93822 18.6112 9.91895 18.5973 9.89431 18.5793C9.84503 18.5433 9.77421 18.4908 9.68493 18.4226C9.50643 18.2862 9.25377 18.0865 8.95167 17.8297C8.34832 17.3169 7.54315 16.5723 6.73638 15.6445C5.1381 13.8065 3.45801 11.1625 3.45801 8.125C3.45801 6.30164 4.18234 4.55295 5.47165 3.26364C6.76096 1.97433 8.50964 1.25 10.333 1.25C12.1564 1.25 13.9051 1.97433 15.1944 3.26364C16.4837 4.55295 17.208 6.30164 17.208 8.125C17.208 11.1625 15.5279 13.8065 13.9296 15.6445C13.1229 16.5723 12.3177 17.3169 11.7144 17.8297C11.4122 18.0865 11.1596 18.2862 10.9811 18.4226C10.8918 18.4908 10.821 18.5433 10.7717 18.5793C10.7471 18.5973 10.7278 18.6112 10.7143 18.6208L10.6984 18.6321L10.6938 18.6354L10.6923 18.6364L10.6918 18.6368C10.6916 18.6369 10.6914 18.637 10.333 18.125ZM10.333 18.125L10.6914 18.637C10.4762 18.7877 10.1898 18.7877 9.97459 18.637L10.333 18.125Z" fill="white"/>
</svg>
