<svg width="21" height="20" viewBox="0 0 21 20" fill="none" xmlns="http://www.w3.org/2000/svg">
<path fill-rule="evenodd" clip-rule="evenodd" d="M10.333 3.125C6.53605 3.125 3.45801 6.20304 3.45801 10C3.45801 13.797 6.53605 16.875 10.333 16.875C14.13 16.875 17.208 13.797 17.208 10C17.208 6.20304 14.13 3.125 10.333 3.125ZM2.20801 10C2.20801 5.51269 5.84569 1.875 10.333 1.875C14.8203 1.875 18.458 5.51269 18.458 10C18.458 14.4873 14.8203 18.125 10.333 18.125C5.84569 18.125 2.20801 14.4873 2.20801 10Z" fill="white"/>
<path fill-rule="evenodd" clip-rule="evenodd" d="M10.333 5C10.6782 5 10.958 5.27982 10.958 5.625V9.375H14.708C15.0532 9.375 15.333 9.65482 15.333 10C15.333 10.3452 15.0532 10.625 14.708 10.625H10.333C9.98783 10.625 9.70801 10.3452 9.70801 10V5.625C9.70801 5.27982 9.98783 5 10.333 5Z" fill="white"/>
</svg>
